<svg width="59" height="90" viewBox="0 0 59 90" fill="none" xmlns="http://www.w3.org/2000/svg">
<path d="M23.0338 89.6058C22.3073 89.6058 21.565 89.4652 20.8541 89.1644C18.3932 88.1371 17.0064 85.5902 17.483 82.9691L23.0963 52.0821H7.29533C5.00623 52.0821 2.89303 51.0391 1.50233 49.2188C0.11173 47.3985 -0.341471 45.086 0.260129 42.875L10.4871 5.375C11.3504 2.2109 14.241 0 17.5223 0H41.8893C44.2291 0 46.444 1.1328 47.8112 3.0312C49.1745 4.9296 49.5495 7.3867 48.8034 9.6015L40.8854 33.3315H51.2374C53.964 33.3315 56.4405 34.8315 57.7022 37.2534C58.96 39.6714 58.7725 42.562 57.2139 44.8003L27.6239 87.1953C26.538 88.7461 24.8192 89.6055 23.0301 89.6055L23.0338 89.6058ZM17.5221 6.25081C17.0534 6.25081 16.6393 6.56722 16.5182 7.01643L6.29123 44.5164C6.17404 44.95 6.35373 45.2703 6.46701 45.4227C6.5842 45.575 6.84592 45.8328 7.29513 45.8328H26.8421C27.7679 45.8328 28.6468 46.243 29.2405 46.9539C29.8343 47.6649 30.0843 48.6023 29.9163 49.5164L24.1429 81.2584L52.0879 41.2194C52.4043 40.7663 52.2676 40.3484 52.1621 40.1413C52.0528 39.9304 51.7871 39.5827 51.2402 39.5827H36.5522C35.5483 39.5827 34.603 39.1023 34.017 38.2859C33.4272 37.4694 33.271 36.4226 33.5874 35.4695L42.8804 7.62145C42.8843 7.62145 42.8843 7.61754 42.8843 7.61754C43.0288 7.18004 42.8569 6.8441 42.7436 6.68395C42.6264 6.51989 42.3608 6.25036 41.896 6.25036L17.5221 6.25081Z" fill="black"/>
</svg>
