<svg width="100" height="100" viewBox="0 0 100 100" fill="none" xmlns="http://www.w3.org/2000/svg">
<path d="M27.6567 91.8749L20.0005 99.5311C19.3755 100.156 18.2817 100.156 17.6567 99.5311L0.46875 82.3431C-0.15625 81.7181 -0.15625 80.6243 0.46875 79.9993L8.12495 72.3431L27.6567 91.8749Z" fill="white"/>
<path d="M44.2198 89.688L39.0636 94.8442C37.9698 95.938 36.0948 95.938 35.0011 94.8442L30.9386 90.7817L9.37659 69.0627L5.31409 65.0002C4.84534 64.5314 4.53284 63.7502 4.53284 62.969C4.53284 62.1878 4.84534 61.5628 5.31409 60.9378L10.4703 55.7816C11.0953 55.1566 11.7203 55.0003 12.5015 55.0003C13.2827 55.0003 13.9077 55.3128 14.5327 55.7816L44.3767 85.6256C45.3142 86.7194 45.3135 88.5943 44.2198 89.688Z" fill="white"/>
<path d="M72.5007 35.6249L35.6257 72.4999L27.1882 64.0624L64.0632 27.1874L72.5007 35.6249Z" fill="white"/>
<path d="M94.8447 39.0619L89.6885 44.2181C88.5947 45.3119 86.7197 45.3119 85.626 44.2181L75.9385 34.5306V34.3744H75.7823L65.1573 23.7494V23.5931H65.001L55.626 14.2181C54.5322 13.1243 54.5322 11.2493 55.626 10.1556L60.9385 5.15564C61.5635 4.53064 62.1885 4.37439 62.9697 4.37439C63.7509 4.37439 64.3759 4.68689 65.0009 5.15564L69.0634 9.21814L90.6254 30.9371L94.6879 34.9996C95.9379 36.2496 95.9385 37.9682 94.8447 39.0619Z" fill="white"/>
<path d="M100.001 18.75C100.001 19.2187 99.8446 19.5312 99.5321 19.8438L91.8759 27.5L72.3448 8.12495L80.0011 0.46875C80.3136 0.15625 80.7823 0 81.2511 0C81.7198 0 82.0323 0.15625 82.3448 0.46875L99.5329 17.6567C99.8454 17.9692 100.002 18.438 100.002 18.7506L100.001 18.75Z" fill="white"/>
</svg>
