<svg width="98" height="85" viewBox="0 0 98 85" fill="none" xmlns="http://www.w3.org/2000/svg">
<path d="M92.9321 33.0641C89.5528 29.1618 84.6248 26.9238 79.4104 26.9238H71.8953C69.8777 26.9238 67.9544 27.5903 66.346 28.758C63.5694 22.5112 57.2827 18.36 50.1211 18.36H42.6184C40.273 18.36 38.0306 19.2092 36.3051 20.7495C36.2088 20.8354 36.1009 20.8994 35.9996 20.9763V19.2653C35.9996 15.3212 38.3473 11.6858 41.9817 10.0027C43.1264 9.47316 43.6165 8.13173 43.0761 7.00783C42.5356 5.88503 41.1738 5.40383 40.0257 5.93337C37.9062 6.91458 36.1122 8.37302 34.7023 10.1203C34.6226 7.60178 33.9974 3.64368 31.0862 1.51467C26.8554 -1.58018 20.2355 0.976336 19.4936 1.27956L18.2325 1.79372L18.0926 3.12746C18.0098 3.91078 17.4112 10.8706 21.642 13.9655C23.2041 15.107 25.0907 15.4794 26.8878 15.4794C29.0516 15.4794 31.0664 14.9428 32.2424 14.5574C31.7225 16.0567 31.4163 17.637 31.4163 19.2653V21.672C30.9428 21.4989 30.4866 21.2612 30.0735 20.9352L29.4368 20.4232C27.8087 19.0928 25.7084 18.36 23.5219 18.36H17.739C12.5246 18.36 7.59663 20.599 4.21956 24.5036C0.843601 28.4059 -0.608832 33.5398 0.234878 38.5858L3.97114 61.0935C5.43477 69.8804 13.0953 76.2569 22.187 76.2569H25.2418C26.579 76.2569 27.8736 75.9844 29.0743 75.4549L31.3615 74.4617C32.4483 73.9868 33.622 73.9361 34.6784 74.2389C37.601 80.5884 44.0608 84.846 51.474 84.846H54.5288C55.8626 84.846 57.1584 84.5735 58.3758 84.0352L60.6563 83.0288C61.9073 82.4729 63.3486 82.4773 64.6041 83.0332L66.8129 84.0198C68.0416 84.5691 69.3463 84.846 70.6913 84.846H74.968C84.0519 84.846 91.708 78.4563 93.1761 69.6541L96.9224 47.1563C97.7639 42.1026 96.3092 36.9654 92.9321 33.0641ZM24.3802 10.3565C23.0005 9.34682 22.6435 6.76943 22.6077 4.99294C24.3522 4.51393 26.9673 4.11623 28.3492 5.12477C29.73 6.13442 30.087 8.7162 30.1217 10.4938C28.2899 10.9904 25.7051 11.3233 24.3802 10.3565ZM29.504 70.3462L27.2067 71.3438C26.5879 71.6184 25.9266 71.7569 25.2418 71.7569H22.187C15.3523 71.7569 9.59401 66.9668 8.49405 60.3684L4.75779 37.8607C4.13228 34.1166 5.20985 30.3109 7.71301 27.4171C10.2184 24.5211 13.8719 22.86 17.739 22.86H23.5219C24.6387 22.86 25.6983 23.2226 26.5185 23.8938L27.1855 24.43C30.8177 27.2963 35.9448 27.148 39.3868 24.0795C40.2674 23.2929 41.4155 22.86 42.6184 22.86H50.1211C55.412 22.86 60.0519 25.9198 62.1209 30.5231C61.1411 30.4728 60.1707 30.1419 59.3516 29.4914L58.6981 28.9739C57.0353 27.6522 54.9406 26.9238 52.8011 26.9238H47.0316C41.8161 26.9238 36.8881 29.1618 33.511 33.0641C30.134 36.9654 28.6793 42.1026 29.5208 47.1563L33.2523 69.5581C31.972 69.5711 30.6942 69.8278 29.504 70.3462ZM92.3972 46.4312L88.6509 68.929C87.5498 75.5449 81.7938 80.346 74.968 80.346H70.6913C70.0043 80.346 69.3373 80.2031 68.7085 79.9241L66.4996 78.9353C65.2665 78.3882 63.9439 78.1135 62.6212 78.1135C61.3098 78.1135 59.9961 78.3838 58.7742 78.9243L56.496 79.9307C55.8716 80.2053 55.2114 80.346 54.5288 80.346H51.474C44.6471 80.346 38.8922 75.5449 37.7911 68.929L34.0437 46.4312C33.4193 42.6815 34.498 38.8715 37.0034 35.9777C39.5088 33.0839 43.1633 31.4238 47.0316 31.4238H52.8011C53.8932 31.4238 54.963 31.7952 55.8156 32.473L56.4713 32.9916C60.0924 35.87 65.2262 35.7261 68.6704 32.6477C69.5567 31.8589 70.7025 31.4238 71.8953 31.4238H79.4104C83.2776 31.4238 86.9344 33.0839 89.4387 35.9777C91.9429 38.8715 93.0216 42.6815 92.3972 46.4312ZM59.5821 51.0279V58.0965C59.5821 59.3401 58.5571 60.3465 57.2904 60.3465C56.0238 60.3465 54.9988 59.3401 54.9988 58.0965V51.0279C54.9988 49.7842 56.0238 48.7779 57.2904 48.7779C58.5571 48.7779 59.5821 49.7842 59.5821 51.0279ZM71.4433 51.0279V58.0965C71.4433 59.3401 70.4183 60.3465 69.1516 60.3465C67.8849 60.3465 66.8599 59.3401 66.8599 58.0965V51.0279C66.8599 49.7842 67.8849 48.7779 69.1516 48.7779C70.4183 48.7779 71.4433 49.7842 71.4433 51.0279Z" fill="#FF8904"/>
</svg>
