<svg width="92" height="66" viewBox="0 0 92 66" fill="none" xmlns="http://www.w3.org/2000/svg">
<path d="M20.0006 0C13.9498 0 9.0006 4.9492 9.0006 11C9.0006 17.0508 13.9498 22 20.0006 22C26.0514 22 31.0006 17.0508 31.0006 11C31.0006 4.9492 26.0514 0 20.0006 0ZM72.0006 0C65.9498 0 61.0006 4.9492 61.0006 11C61.0006 17.0508 65.9498 22 72.0006 22C78.0514 22 83.0006 17.0508 83.0006 11C83.0006 4.9492 78.0514 0 72.0006 0ZM46.0006 2C38.8444 2 33.0006 7.8438 33.0006 15C33.0006 22.1562 38.8444 28 46.0006 28C53.1568 28 59.0006 22.1562 59.0006 15C59.0006 7.8438 53.1568 2 46.0006 2ZM20.0006 4C23.8912 4 27.0006 7.1094 27.0006 11C27.0006 14.8906 23.8912 18 20.0006 18C16.11 18 13.0006 14.8906 13.0006 11C13.0006 7.1094 16.11 4 20.0006 4ZM72.0006 4C75.8912 4 79.0006 7.1094 79.0006 11C79.0006 14.8906 75.8912 18 72.0006 18C68.11 18 65.0006 14.8906 65.0006 11C65.0006 7.1094 68.11 4 72.0006 4ZM46.0006 6C50.9967 6 55.0006 10.0078 55.0006 15C55.0006 19.9961 50.9967 24 46.0006 24C41.0045 24 37.0006 19.9961 37.0006 15C37.0006 10.0078 41.0045 6 46.0006 6ZM23.1916 24C17.508 24 11.9296 24.7148 7.5156 27.1055C3.1016 29.4962 0 33.8789 0 40.0235V51.1175C0 51.5081 0.11328 51.8909 0.33203 52.2191C3.20313 56.5785 14.617 57.723 18.871 58.0003C19.9726 58.0745 20.9257 57.2386 20.9999 56.1331C21.0742 55.0315 20.2382 54.0784 19.1327 54.0081C17.7382 53.9183 7.37073 53.1487 3.99973 50.2386V40.0276C3.99973 35.1096 5.99193 32.4807 9.41773 30.6253C12.8474 28.7698 17.863 28.0042 23.1877 28.0042C28.1447 28.0042 33.4337 29.0784 37.0317 31.0667C38.0005 31.6019 39.2153 31.2503 39.7505 30.2854C40.2857 29.3206 39.9341 28.1019 38.9693 27.5667C34.4927 25.0901 28.6963 24.0042 23.1883 24.0042L23.1916 24ZM68.8126 24C63.3048 24 57.5076 25.0859 53.0316 27.5625C52.0668 28.0977 51.7152 29.3125 52.2503 30.2813C52.7855 31.2501 54.0004 31.5977 54.9692 31.0625C58.5669 29.0742 63.8559 28 68.8132 28C74.1374 28 79.1532 28.7657 82.5832 30.6212C86.0129 32.4767 88.0051 35.1055 88.0012 40.0234V50.2345C84.6262 53.1525 74.2432 53.9181 72.8682 54.004C71.7666 54.0743 70.9307 55.0274 71.001 56.129C71.0713 57.2306 72.0244 58.0664 73.1299 57.9961C77.3916 57.7188 88.8019 56.5743 91.6689 52.215C91.8837 51.8868 92.0009 51.504 92.0009 51.1133V40.0193C92.0009 33.8748 88.8993 29.4883 84.4853 27.1013C80.0712 24.7107 74.4931 23.9958 68.8093 23.9958L68.8126 24ZM46.0006 32C39.9772 32 34.4416 32.8828 30.1766 35.2109C25.911 37.539 23.0008 41.625 23.0008 46.9999V59.9999C23.0008 60.8163 23.4969 61.5546 24.2586 61.8593C24.2586 61.8593 34.5166 66.0038 46.0006 65.9999C57.4846 65.9999 67.7426 61.8593 67.7426 61.8593C68.5004 61.5546 69.0004 60.8202 69.0004 59.9999V46.9999C69.0004 41.6288 66.0863 37.5429 61.8207 35.2109C57.5551 32.8828 52.0237 32 46.0006 32ZM46.0006 36C51.6139 36 56.5786 36.9063 59.9026 38.7266C63.2307 40.543 65.0003 42.9571 65.0003 47V58.535C63.305 59.1678 55.4456 61.9998 46.0003 61.9998C36.555 61.9998 28.6953 59.1678 27.0003 58.535V47C27.0003 42.9531 28.7698 40.543 32.0941 38.7266C35.4222 36.9102 40.3876 36 46.0006 36Z" fill="black"/>
</svg>
